<svg xmlns="http://www.w3.org/2000/svg" width="43" height="43" viewBox="0 0 43 43" fill="none">
<g clip-path="url(#clip0_431_133)">
<path d="M21.4801 12.8533V5.91992H4.14673V37.1199H38.8134V12.8533H21.4801ZM11.0801 33.6533H7.6134V30.1866H11.0801V33.6533ZM11.0801 26.7199H7.6134V23.2533H11.0801V26.7199ZM11.0801 19.7866H7.6134V16.3199H11.0801V19.7866ZM11.0801 12.8533H7.6134V9.38659H11.0801V12.8533ZM18.0134 33.6533H14.5467V30.1866H18.0134V33.6533ZM18.0134 26.7199H14.5467V23.2533H18.0134V26.7199ZM18.0134 19.7866H14.5467V16.3199H18.0134V19.7866ZM18.0134 12.8533H14.5467V9.38659H18.0134V12.8533ZM35.3467 33.6533H21.4801V30.1866H24.9467V26.7199H21.4801V23.2533H24.9467V19.7866H21.4801V16.3199H35.3467V33.6533ZM31.8801 19.7866H28.4134V23.2533H31.8801V19.7866ZM31.8801 26.7199H28.4134V30.1866H31.8801V26.7199Z" fill="black"/>
</g>
<defs>
<clipPath id="clip0_431_133">
<rect width="41.6" height="41.6" fill="white" transform="translate(0.680054 0.719971)"/>
</clipPath>
</defs>
</svg>