<svg xmlns="http://www.w3.org/2000/svg" width="28" height="29" viewBox="0 0 28 29" fill="none">
<path fill-rule="evenodd" clip-rule="evenodd" d="M8.75031 1.28098C10.0826 1.21608 10.5074 1.20166 13.9012 1.20166C17.295 1.20166 17.7197 1.21728 19.0509 1.28098C20.3821 1.34467 21.2907 1.5694 22.0858 1.89507C22.9183 2.22796 23.6736 2.74832 24.2983 3.4213C24.9344 4.08106 25.425 4.87903 25.7385 5.76112C26.0474 6.60234 26.2587 7.56375 26.32 8.9698C26.3814 10.3819 26.395 10.8313 26.395 14.421C26.395 18.0118 26.3802 18.4613 26.32 19.8709C26.2598 21.277 26.0474 22.2384 25.7385 23.0796C25.425 23.9618 24.9335 24.7611 24.2983 25.4218C23.6736 26.0948 22.9183 26.614 22.0858 26.9456C21.2907 27.2725 20.3821 27.496 19.0532 27.5609C17.7197 27.6258 17.295 27.6403 13.9012 27.6403C10.5074 27.6403 10.0826 27.6246 8.75031 27.5609C7.42142 27.4972 6.51278 27.2725 5.71772 26.9456C4.88395 26.6139 4.12853 26.0939 3.50404 25.4218C2.86842 24.7617 2.37655 23.9628 2.06271 23.0808C1.7549 22.2396 1.54364 21.2782 1.48231 19.8721C1.42098 18.4601 1.40735 18.0106 1.40735 14.421C1.40735 10.8301 1.42211 10.3807 1.48231 8.9722C1.54251 7.56375 1.7549 6.60234 2.06271 5.76112C2.37701 4.87913 2.86926 4.08024 3.50518 3.4201C4.12878 2.74772 4.88344 2.22729 5.71658 1.89507C6.51165 1.5694 7.42029 1.34587 8.74918 1.28098H8.75031ZM18.9498 3.66045C17.6323 3.59676 17.237 3.58354 13.9012 3.58354C10.5653 3.58354 10.1701 3.59676 8.85253 3.66045C7.63382 3.71934 6.97278 3.93445 6.53209 4.11591C5.94942 4.35627 5.53258 4.64108 5.0953 5.10376C4.68078 5.53044 4.36178 6.04988 4.16167 6.62398C3.99016 7.09026 3.78685 7.78968 3.7312 9.07916C3.671 10.4732 3.65851 10.8914 3.65851 14.421C3.65851 17.9505 3.671 18.3687 3.7312 19.7628C3.78685 21.0522 3.99016 21.7517 4.16167 22.2179C4.36157 22.7912 4.68073 23.3115 5.0953 23.7382C5.49851 24.1768 5.99031 24.5145 6.53209 24.726C6.97278 24.9075 7.63382 25.1226 8.85253 25.1815C10.1701 25.2452 10.5642 25.2584 13.9012 25.2584C17.2382 25.2584 17.6323 25.2452 18.9498 25.1815C20.1685 25.1226 20.8296 24.9075 21.2703 24.726C21.8529 24.4857 22.2698 24.2008 22.7071 23.7382C23.1216 23.3115 23.4408 22.7912 23.6407 22.2179C23.8122 21.7517 24.0155 21.0522 24.0712 19.7628C24.1313 18.3687 24.1438 17.9505 24.1438 14.421C24.1438 10.8914 24.1313 10.4732 24.0712 9.07916C24.0155 7.78968 23.8122 7.09026 23.6407 6.62398C23.4135 6.00748 23.1443 5.56643 22.7071 5.10376C22.3038 4.6652 21.8128 4.32768 21.2703 4.11591C20.8296 3.93445 20.1685 3.71934 18.9498 3.66045ZM12.3054 18.4961C13.1966 18.8886 14.189 18.9416 15.113 18.646C16.037 18.3504 16.8354 17.7245 17.3717 16.8752C17.9081 16.026 18.1491 15.0061 18.0537 13.9897C17.9583 12.9733 17.5323 12.0234 16.8486 11.3024C16.4127 10.8415 15.8857 10.4886 15.3054 10.2691C14.7251 10.0496 14.1061 9.96889 13.4929 10.0329C12.8796 10.0969 12.2874 10.304 11.7588 10.6392C11.2303 10.9744 10.7786 11.4295 10.4362 11.9716C10.0938 12.5137 9.86929 13.1294 9.7788 13.7744C9.68831 14.4193 9.73409 15.0775 9.91285 15.7014C10.0916 16.3254 10.3989 16.8997 10.8126 17.3829C11.2263 17.8662 11.7361 18.2464 12.3054 18.4961ZM9.36024 9.61634C9.95656 8.98539 10.6645 8.4849 11.4436 8.14343C12.2228 7.80196 13.0578 7.62621 13.9012 7.62621C14.7445 7.62621 15.5796 7.80196 16.3587 8.14343C17.1378 8.4849 17.8458 8.98539 18.4421 9.61634C19.0384 10.2473 19.5115 10.9963 19.8342 11.8207C20.1569 12.6451 20.323 13.5287 20.323 14.421C20.323 15.3133 20.1569 16.1968 19.8342 17.0212C19.5115 17.8456 19.0384 18.5946 18.4421 19.2256C17.2378 20.4998 15.6044 21.2157 13.9012 21.2157C12.198 21.2157 10.5646 20.4998 9.36024 19.2256C8.15591 17.9513 7.47932 16.223 7.47932 14.421C7.47932 12.6189 8.15591 10.8906 9.36024 9.61634ZM21.7473 8.63812C21.8951 8.49062 22.0134 8.31326 22.0952 8.11652C22.177 7.91979 22.2207 7.70768 22.2237 7.49276C22.2266 7.27784 22.1888 7.06448 22.1124 6.8653C22.0361 6.66612 21.9227 6.48519 21.7791 6.3332C21.6354 6.18121 21.4644 6.06126 21.2762 5.98046C21.0879 5.89965 20.8863 5.85963 20.6831 5.86276C20.48 5.8659 20.2795 5.91212 20.0936 5.9987C19.9077 6.08528 19.74 6.21045 19.6006 6.3668C19.3295 6.67088 19.1811 7.07478 19.1869 7.49276C19.1926 7.91074 19.3521 8.30989 19.6315 8.60548C19.9108 8.90107 20.2881 9.06982 20.6831 9.07591C21.0782 9.08201 21.4599 8.92496 21.7473 8.63812Z" fill="white"/>
</svg>