<svg xmlns="http://www.w3.org/2000/svg" width="28" height="29" viewBox="0 0 28 29" fill="none">
<path fill-rule="evenodd" clip-rule="evenodd" d="M11.4132 10.7783H15.6316V13.0016C16.2392 11.7229 17.7976 10.574 20.1385 10.574C24.626 10.574 25.6914 13.1194 25.6914 17.7894V26.4384H21.1482V18.8529C21.1482 16.1935 20.5405 14.6937 18.9936 14.6937C16.848 14.6937 15.9564 16.31 15.9564 18.8517V26.4384H11.4132V10.7783ZM3.62275 26.2341H8.16596V10.574H3.62275V26.2341ZM8.81677 5.46779C8.81694 5.87071 8.74142 6.26965 8.5946 6.64141C8.44777 7.01318 8.23258 7.35036 7.96151 7.63336C7.41224 8.21095 6.66876 8.53425 5.89435 8.53227C5.12132 8.53172 4.37955 8.20923 3.82947 7.63456C3.55938 7.3506 3.34492 7.01304 3.19835 6.64122C3.05178 6.26941 2.976 5.87065 2.97534 5.46779C2.97534 4.65421 3.28201 3.87547 3.8306 3.30103C4.3802 2.72558 5.12228 2.40296 5.89549 2.40332C6.67011 2.40332 7.41292 2.72659 7.96151 3.30103C8.50897 3.87547 8.81677 4.65421 8.81677 5.46779Z" fill="white"/>
</svg>