<svg xmlns="http://www.w3.org/2000/svg" width="40" height="40" viewBox="0 0 40 40" fill="none">
  <g clip-path="url(#clip0_431_182)">
    <path fill-rule="evenodd" clip-rule="evenodd" d="M27.7833 21.8833C30.0667 23.4333 31.6667 25.5333 31.6667 28.3333V33.3333H38.3333V28.3333C38.3333 24.7 32.3833 22.55 27.7833 21.8833Z" fill="black"/>
    <path d="M15 20C18.6819 20 21.6666 17.0152 21.6666 13.3333C21.6666 9.65139 18.6819 6.66663 15 6.66663C11.3181 6.66663 8.33331 9.65139 8.33331 13.3333C8.33331 17.0152 11.3181 20 15 20Z" fill="black"/>
    <path fill-rule="evenodd" clip-rule="evenodd" d="M25 20C28.6833 20 31.6667 17.0166 31.6667 13.3333C31.6667 9.64996 28.6833 6.66663 25 6.66663C24.2167 6.66663 23.4833 6.83329 22.7833 7.06663C24.1667 8.78329 25 10.9666 25 13.3333C25 15.7 24.1667 17.8833 22.7833 19.6C23.4833 19.8333 24.2167 20 25 20Z" fill="black"/>
    <path fill-rule="evenodd" clip-rule="evenodd" d="M15 21.6666C10.55 21.6666 1.66666 23.9 1.66666 28.3333V33.3333H28.3333V28.3333C28.3333 23.9 19.45 21.6666 15 21.6666Z" fill="black"/>
  </g>
  <defs>
    <clipPath id="clip0_431_182">
      <rect width="40" height="40" fill="white"/>
    </clipPath>
  </defs>
</svg>