<svg xmlns="http://www.w3.org/2000/svg" width="41" height="40" viewBox="0 0 41 40" fill="none">
  <g clip-path="url(#clip0_98_194)">
    <path d="M0.125233 37.0697L13.0683 24.1267C11.0598 21.5301 9.97329 18.3554 9.97329 15.0162C9.97329 11.0192 11.5332 7.27132 14.3541 4.44549C17.1749 1.61965 20.9328 0.0646973 24.9248 0.0646973C28.9169 0.0646973 32.6747 1.62464 35.4955 4.44549C38.3214 7.26634 39.8763 11.0192 39.8763 15.0162C39.8763 19.0083 38.3164 22.7661 35.4955 25.5869C32.6747 28.4128 28.9218 29.9677 24.9248 29.9677C21.5856 29.9677 18.4159 28.8812 15.8193 26.8777L2.87631 39.8158C2.83836 39.8537 2.7933 39.8839 2.7437 39.9044C2.6941 39.925 2.64094 39.9356 2.58725 39.9356C2.53356 39.9356 2.4804 39.925 2.4308 39.9044C2.3812 39.8839 2.33614 39.8537 2.29819 39.8158L0.125233 37.6478C0.0872612 37.6099 0.0571327 37.5648 0.0365829 37.5152C0.0160294 37.4656 0.00544739 37.4124 0.00544739 37.3587C0.00544739 37.3051 0.0160294 37.2519 0.0365829 37.2023C0.0571327 37.1527 0.0872612 37.1076 0.125233 37.0697ZM17.0304 22.9106C19.1436 25.0188 21.9445 26.18 24.9248 26.18C27.9051 26.18 30.7061 25.0188 32.8192 22.9106C34.9274 20.7975 36.0886 17.9965 36.0886 15.0162C36.0886 12.0359 34.9274 9.22997 32.8192 7.12181C30.7061 5.01365 27.9051 3.85241 24.9248 3.85241C21.9445 3.85241 19.1386 5.00866 17.0304 7.12181C14.9222 9.23496 13.761 12.0359 13.761 15.0162C13.761 17.9965 14.9222 20.8024 17.0304 22.9106Z" fill="#252223"/>
  </g>
  <defs>
    <clipPath id="clip0_98_194">
      <rect width="40.0278" height="40" transform="matrix(-1 0 0 1 40.4951 0)" fill="white"/>
    </clipPath>
  </defs>
</svg>